HIERARCHY
ROOT HipCenter
{
    OFFSET 0.0 0.0 -0.0
    CHANNELS 6 Xposition Yposition Zposition Zrotation Xrotation Yrotation
    JOINT Spine
    {
        OFFSET 0.0 0.12093144655227661 0.0
        CHANNELS 3 Zrotation Xrotation Yrotation
        JOINT ShoulderCenter
        {
            OFFSET 0.0 0.3336043059825897 0.0
            CHANNELS 3 Zrotation Xrotation Yrotation
            JOINT LeftShoulder
            {
                OFFSET 0.1905135214328766 0.0 0.0
                CHANNELS 3 Zrotation Xrotation Yrotation
                JOINT LeftElbow
                {
                    OFFSET 0.2974621057510376 0.0 0.0
                    CHANNELS 3 Zrotation Xrotation Yrotation
                    JOINT LeftWrist
                    {
                        OFFSET 0.29610544443130493 0.0 0.0
                        CHANNELS 3 Zrotation Xrotation Yrotation
                        JOINT LeftHand
                        {
                            OFFSET 0.04400521516799927 0.0 0.0
                            CHANNELS 3 Zrotation Xrotation Yrotation
                            End Site
                            {
                                OFFSET 0.017602086067199707 0.0 0.0
                            }
                        }
                    }
                }
            }
            JOINT RightShoulder
            {
                OFFSET -0.1905135214328766 0.0 0.0
                CHANNELS 3 Zrotation Xrotation Yrotation
                JOINT RightElbow
                {
                    OFFSET -0.2974621057510376 0.0 0.0
                    CHANNELS 3 Zrotation Xrotation Yrotation
                    JOINT RightWrist
                    {
                        OFFSET -0.29610544443130493 0.0 0.0
                        CHANNELS 3 Zrotation Xrotation Yrotation
                        JOINT RightHand
                        {
                            OFFSET -0.04400521516799927 0.0 0.0
                            CHANNELS 3 Zrotation Xrotation Yrotation
                            End Site
                            {
                                OFFSET -0.017602086067199707 0.0 0.0
                            }
                        }
                    }
                }
            }
            End Site
            {
                OFFSET 0.0 0.1334417164325714 0.0
            }
        }
    }
    JOINT LeftHip
    {
        OFFSET 0.13974279165267944 0.0 0.0
        CHANNELS 3 Zrotation Xrotation Yrotation
        JOINT LeftKnee
        {
            OFFSET 0.0 -0.40650272369384766 0.0
            CHANNELS 3 Zrotation Xrotation Yrotation
            JOINT LeftAnkle
            {
                OFFSET 0.0 -0.447690486907959 0.0
                CHANNELS 3 Zrotation Xrotation Yrotation
                JOINT LeftFoot
                {
                    OFFSET 0.0 -0.10071147978305817 0.0
                    CHANNELS 3 Zrotation Xrotation Yrotation
                    End Site
                    {
                        OFFSET 0.0 0.0 0.040284596383571625
                    }
                }
            }
        }
    }
    JOINT RightHip
    {
        OFFSET -0.13974279165267944 0.0 0.0
        CHANNELS 3 Zrotation Xrotation Yrotation
        JOINT RightKnee
        {
            OFFSET 0.0 -0.40650272369384766 0.0
            CHANNELS 3 Zrotation Xrotation Yrotation
            JOINT RightAnkle
            {
                OFFSET 0.0 -0.447690486907959 0.0
                CHANNELS 3 Zrotation Xrotation Yrotation
                JOINT RightFoot
                {
                    OFFSET 0.0 -0.10071147978305817 0.0
                    CHANNELS 3 Zrotation Xrotation Yrotation
                    End Site
                    {
                        OFFSET 0.0 0.0 0.040284596383571625
                    }
                }
            }
        }
    }
}
MOTION
Frames: 10
Frame Time: 0.03333333333333333
0.8600000143051147 0.7429999709129333 0.6000000238418579 104.25000976992088 -57.49247842864568 -29.77268781975488 -13.432098508563845 7.644673120895585 2.891300344905168 4.105023456985086e-06 2.2204131952342343e-06 -29.646883011632386 106.53459470760977 44.11190304117082 -134.0738160554929 -5.001282780851629e-07 8.483804935353363e-07 14.084213057987643 -1.671748535252103e-05 83.40333836835774 25.420620323411715 0.0 0.0 -7.951386703658792e-16 -143.63980372421892 -9.102636899699057 133.03756994655959 7.548188342469179e-07 -1.946989868161698e-06 -63.49091889405897 179.99999985031488 -50.43070006444433 147.3057762311535 6.3611093629270335e-15 -1.5902773407317584e-15 -3.1805546814635168e-15 165.02085227631864 -57.97160204841885 -139.82960349438466 91.53521318759188 12.496448088891682 -164.19686240553767 58.57855871081345 -22.755463000333148 132.37814572158211 4.770832022195274e-15 -3.180554681463516e-15 5.5659706925611536e-15 -169.41875929235303 -65.43969506464396 131.68919590465785 -124.94458172458206 37.02413932412097 167.20523692481586 -64.6267691287513 -26.89637648439767 -70.68498780545141 0.0 0.0 0.0
0.8479999899864197 0.6959999799728394 0.5860000252723694 115.34613714178316 -58.51906942998842 -21.184272450653204 -13.518447079796212 2.453505819684779 1.011781999159679 1.4373511620543017e-06 2.416499442568604e-06 -32.8072115006194 139.064416459321 31.07877956273662 -155.80155208404796 2.7347331774111064e-06 -5.861753881747512e-06 21.383240835758677 -2.4481309404946104e-06 -8.156492824807009 18.07614241190235 -6.3611093629270335e-15 -3.1805546814635168e-15 3.1805546814635168e-15 -151.2611470697284 -7.364728138184248 130.1403835676539 -1.588677161633668e-06 1.2777006987798173e-06 -73.80531395999654 -179.999999059997 -56.9437004176939 145.83561592124437 -2.2069531490250793e-32 1.5902773407317584e-15 1.5902773407317584e-15 145.6385460722775 -67.94475633394035 -161.69614534995546 82.0141640209519 11.599521985245213 -166.35412777080998 53.299671998837944 -13.447585541445578 133.0938907849153 3.1805546814635168e-15 1.5902773407317584e-15 -4.4139062980501586e-32 -169.830853187357 -79.30438530212602 136.97946285564052 -108.17851703934666 48.3189253799366 157.4867337156588 -61.37000686064166 -25.917192049174528 -68.42676324693859 4.770832022195275e-15 -1.3241718894150476e-31 -3.1805546814635168e-15
0.8270000219345093 0.6299999952316284 0.5789999961853027 125.07372066353392 -61.552233372927375 -16.36456534847921 -13.48770777756854 -0.8981082611545336 -0.3342315356200762 3.0167748328491146e-07 -1.2146745757639047e-06 -32.482611346319345 151.0960298886286 38.29298194732132 -171.4694095450161 -2.351399972831174e-06 4.153325867744066e-07 37.35604552735047 -3.5030125182307306e-06 -36.33284733838078 22.228050492627048 0.0 1.9878466759146977e-16 0.0 -156.10698292828928 -2.4617874288026096 127.928102784853 1.4074355112545965e-06 -3.658473639439244e-06 -81.59479274053152 179.99999413580062 -62.14403124533085 143.80288709459782 1.3241718894150476e-31 -4.770832022195274e-15 3.1805546814635164e-15 96.63561583262955 -71.03158447703777 149.01484251317797 71.86141204362991 8.992561842037471 -169.9001172932589 49.416962128535495 -8.837645471558771 130.0298249355327 -1.5902773407317584e-15 -3.1805546814635164e-15 -3.1805546814635164e-15 12.685956210825214 -82.69474394580844 -26.835324523186387 -76.09424903778994 64.26567846847084 129.4160317166332 -55.45642314568864 -25.412701220234645 -59.622716211025434 1.5902773407317584e-15 -4.4139062980501586e-32 -3.1805546814635168e-15
0.800000011920929 0.546999990940094 0.578000009059906 133.45186474787795 -64.34831774787466 -13.228148050153646 -12.40946548312971 -4.552654431380841 -1.462125909104353 2.7351099416030644e-06 8.202921593294874e-08 -27.76456587013558 163.1449608642504 43.81155655371155 176.94135353923716 1.04264110650504e-06 -4.3883863544141665e-06 46.578710478777786 1.2937794429939715e-06 -30.36746432763644 29.012946890336906 0.0 0.0 -3.1805546814635164e-15 -158.8782138755054 4.77312501561689 128.91082997342906 -6.082524980583562e-07 1.8152697914681058e-06 -84.35482638388945 -179.99998398214947 -67.78693727389305 144.09452024504725 6.361109362927033e-15 -1.590277340731758e-15 2.385416011097637e-15 58.965843441173426 -61.32267341408938 106.73721693800704 61.01443967814879 10.632796964016705 -168.78762539976606 49.49449321521923 -6.112231850736911 132.12459640078285 4.770832022195275e-15 6.3611093629270335e-15 -2.648343778830095e-31 8.546061414582447 -64.11357576405335 -12.019557476565954 -7.549930301413686 64.09583255119693 60.35117433483451 -48.414331120869 -22.514877462096283 -48.5217468037338 0.0 0.0 0.0
0.7699999809265137 0.4480000138282776 0.5860000252723694 138.69142425397334 -68.58250846236825 -12.921478074667315 -9.534722532535207 -5.892946070804415 -1.480495924405578 1.0399028143924884e-06 -2.1245208086792004e-07 -20.76414479563513 173.13506011042875 47.49356510480683 172.52331611105592 3.684299315599905e-06 -4.298309615605144e-06 55.282002346692046 7.901299511259063e-07 -33.09764005988182 28.285784022798975 0.0 0.0 0.0 -160.47317617817612 13.392867113487892 131.41136653260756 -2.533445158744405e-06 2.95150635516752e-06 -82.05179512502306 -179.99998814128833 -75.12341460078429 140.24050280028206 0.0 0.0 2.1866313435061676e-15 42.1620438548115 -46.24027244449728 63.60006241335587 45.99462557648415 27.760433911479414 -148.8271320658226 54.347166642619676 -5.014639033916816 150.7400361835878 4.770832022195275e-15 -6.3611093629270335e-15 2.648343778830095e-31 6.285024826832058 -45.35757901752748 4.08977467619111 17.395701047583035 42.849999844318525 29.50275413335506 -39.80242101065606 -16.984737684849293 -35.5489176306946 -3.1805546814635168e-15 -6.3611093629270335e-15 3.1805546814635168e-15
0.7450000047683716 0.33799999952316284 0.5979999899864197 143.1300651707521 -73.21016639873366 -11.845428207687254 -7.072412706559242 -5.93866633235279 -1.198924870329427 4.875884348067413e-07 2.350363404724881e-06 -14.9121544590882 -178.32373940189618 51.32443139826008 174.23085577346404 8.159698985026083e-08 -4.174883380981849e-07 60.10484889558242 2.172393990310961e-06 -34.201656339844554 28.82093886306024 0.0 0.0 0.0 -160.7016808775195 21.85671164997184 132.78528517129865 5.643440541210722e-07 -3.223463318312642e-06 -75.65567293415991 179.9999859807543 -77.84886086875535 137.89595925214832 -2.2069531490250793e-32 -3.1805546814635168e-15 -7.951386703658792e-16 33.16180491561057 -31.92510489310785 -12.326845676587354 -10.572497181394926 43.22194861097992 -63.908938037271106 60.872783456350376 -7.952972772511135 151.97873304822883 3.1805546814635168e-15 3.1805546814635168e-15 -3.1805546814635168e-15 4.922950187700881 -28.92303303412665 16.8985432674081 17.149095268806793 25.221265576208683 18.85605969773935 -35.832436484739226 -15.351093665861379 -36.46104394318312 2.648343778830095e-31 6.3611093629270335e-15 -4.770832022195275e-15
0.7279999852180481 0.21799999475479126 0.6069999933242798 150.01838093011338 -75.61095306441366 -6.981112736885472 -6.148186403196436 -8.385682766106022 -1.4042565985854825 1.953646986285648e-06 2.4538077788591023e-07 -14.148914147126975 -166.34138774602155 53.14422774917726 173.68658732640262 8.324684984836811e-10 1.3753830595279284e-07 62.93283722646323 -7.715813925739948e-07 -29.8756321458243 30.722346275480962 -3.1805546814635168e-15 1.7655625192200634e-31 -6.3611093629270335e-15 -156.10118523243835 26.38503612454884 127.25218216732384 5.830655807700135e-07 1.9856447090252263e-06 -66.62532246312307 -179.99998442399254 -78.88602666535908 136.94235053737557 6.361109362927035e-15 0.0 0.0 27.395104127293745 -21.324898664113732 -36.42965776951263 -20.357723995669353 33.420089394668054 -39.561333373286445 67.11405696284099 -12.252747373609864 151.18820282477438 8.827812596100317e-32 -3.1805546814635168e-15 3.1805546814635168e-15 3.901680105308443 -18.650707504835054 23.038432829170556 11.829562433816537 19.16112457991422 16.648924095284617 -45.064889938364104 -21.712205008252493 -75.59409839612096 0.0 -6.361109362927033e-15 0.0
0.7129999995231628 0.09300000220537186 0.6159999966621399 156.2505485847527 -76.96748373776799 -1.8286780277263168 -4.328528940718683 -10.921654288238956 -1.207652665110668 -1.3473000911761447e-06 -3.200050504341014e-06 -15.040938595325914 -159.54375932086432 54.91944129504954 177.63487578351555 -1.8309239513224327e-06 -5.518822304057276e-06 66.1573402170707 -6.061025645896629e-06 -28.62144837036228 30.237597923327147 -1.7655625192200634e-31 -3.1805546814635168e-15 -6.3611093629270335e-15 -150.51008504830727 28.51423759515092 120.2362622292084 3.0303184489743132e-06 8.140944831027332e-07 -59.48737205902975 -179.99999602202746 -78.81852428070833 137.38637744818425 0.0 0.0 -1.5902773407317584e-15 23.59290003142863 -13.861441363598274 -43.54194505541707 -20.000075217665913 30.480216793257608 -33.337232909249394 71.76568339174862 -12.504537554380667 154.895339419494 1.5902773407317584e-15 6.620859447075238e-32 4.770832022195275e-15 3.4939004850793043 -11.614276817710126 26.748387892601553 7.911055731088962 20.052847697421562 18.43003906644451 -68.19973496956385 -27.45695581045791 -126.90128397559113 1.5902773407317584e-15 -1.2689980606894205e-31 -9.14409470920761e-15
0.6970000267028809 -0.03500000014901161 0.621999979019165 171.25381931843341 -77.43247957829034 13.108964317474873 -4.1371829420893995 -12.876972520120317 -0.8134319620011994 -6.696107328902928e-07 3.5957636559034855e-06 -16.820899022550247 -159.35474857467236 54.967028320196725 -175.3480710088266 3.234350525984546e-06 -3.1269718911467493e-07 70.63842522693164 1.5243600962787978e-06 -27.84153823786654 32.4489221696145 0.0 -3.975693351829396e-16 0.0 -148.52004660693123 27.27500154753368 116.80069246874807 5.509088667694491e-06 -2.2967325448287695e-06 -56.10774813655254 179.99997098308427 -82.91062854503394 135.36291825619452 1.2722218725854067e-14 0.0 0.0 18.780663662980942 -9.024354734032697 -46.80224200513901 -20.79359827494989 30.058111734045113 -29.26356557998851 74.70414737742468 -13.76252276175016 152.85574795724168 6.3611093629270335e-15 1.7655625192200634e-31 3.1805546814635168e-15 -0.731002556721551 -4.655822495312831 33.00743796714118 9.380302920764466 19.274805226491598 16.50180077955443 -89.49811604495386 -25.39488717601848 -151.74036816363596 -1.5902773407317584e-15 3.310429723537619e-32 -2.3854160110976376e-15
0.6840000152587891 -0.17100000381469727 0.6230000257492065 -173.41813333371837 -77.49421479170309 28.34338248385313 -3.6970813938648734 -13.7929580294714 -0.30314223112040406 -1.600064606184221e-06 3.7393733792115874e-06 -18.40340299884778 -160.9033124464377 50.839757275655906 -169.61041355991222 -3.355773936997095e-06 -6.1894625243323535e-06 77.67578473719384 9.758024826215387e-07 -26.24364264950089 33.38180788710838 0.0 0.0 0.0 -145.79805949061043 24.610338056769766 114.60637296674108 -4.535142129911018e-07 1.2453374976514298e-07 -56.291151731972235 2.2086799752092064e-05 -85.51878056048726 -50.72787857552635 6.3611093629270335e-15 -2.648343778830095e-31 -4.770832022195275e-15 15.442742290404553 -3.9561716635527895 -50.32522113084661 -22.689398164871488 28.210080146874642 -23.72637753717891 75.65170281595904 -15.237865393899016 147.63628846821035 -3.1805546814635168e-15 -8.827812596100317e-32 3.1805546814635168e-15 -5.279463329032761 2.4790457190212645 40.27083203885221 12.029688802320576 18.20767144478908 13.850630762278257 -90.8432366067152 -22.575121234873965 -152.91076115857825 1.5902773407317588e-15 3.1805546814635168e-15 -7.553817368475852e-15
